<svg xmlns="http://www.w3.org/2000/svg" xmlns:xlink="http://www.w3.org/1999/xlink" width="343" height="90.55947875976562" viewBox="0 0 343 90.55947875976562" fill="none">
<rect  x="0" y="0" width="343" height="90" rx="10"    fill="#BFE3CE" >
</rect>
<g  mask="url(#mask-0_852)">
<path     fill="#B5AE79"  d="M244 88L329 88L329 61C329 55.48 324.52 51 319 51L254 51C248.48 51 244 55.48 244 61L244 88Z">
</path>
<path   fill-rule="evenodd"  fill="#F4F5ED"  d="M318.673 88.8201L279.979 83.9397C278.332 83.732 277.171 82.2348 277.378 80.5879L281.537 47.6156C283.342 47.8418 284.994 46.559 285.222 44.7542C285.449 42.9494 284.166 41.3064 282.362 41.0774L283.635 30.9809C283.843 29.334 285.34 28.1722 286.987 28.3799L325.681 33.2603C327.328 33.468 328.489 34.9652 328.282 36.6121L327.008 46.7087L327.005 46.7083C325.2 46.4806 323.557 47.7551 323.33 49.5607C323.102 51.3664 324.375 53.0188 326.181 53.2465L326.183 53.2468L322.025 86.2191C321.817 87.8661 320.32 89.0278 318.673 88.8201Z">
</path>
<path fill-rule="evenodd"  fill="rgba(51, 51, 51, 1)"  d="M279.979 83.9397L318.673 88.8201C320.32 89.0278 321.817 87.8661 322.025 86.2191L326.183 53.2468L326.177 53.2461C324.373 53.0166 323.102 51.3653 323.33 49.5607C323.557 47.7559 325.198 46.4818 327.003 46.708L327.008 46.7087L328.282 36.6121C328.489 34.9652 327.328 33.468 325.681 33.2603L286.987 28.3799C285.34 28.1722 283.843 29.334 283.635 30.9809L282.362 41.0774C284.166 41.3064 285.449 42.9494 285.222 44.7542C284.994 46.559 283.342 47.8418 281.537 47.6156L277.378 80.5879C277.171 82.2348 278.332 83.732 279.979 83.9397ZM281.973 48.1564L277.874 80.6504C277.702 82.0203 278.672 83.2709 280.042 83.4436L318.735 88.324C320.105 88.4968 321.356 87.5264 321.529 86.1565L325.629 53.6481C323.816 53.1726 322.593 51.4076 322.834 49.4982C323.074 47.5888 324.696 46.1913 326.571 46.1821L327.786 36.5496C327.958 35.1797 326.988 33.9292 325.618 33.7564L286.925 28.876C285.555 28.7032 284.304 29.6736 284.131 31.0435L282.918 40.6617Q286.159 41.3154 285.718 44.8167Q285.275 48.3273 281.973 48.1564Z">
</path>
<g >
<path     fill="#333333"  d="M296.308 38.5865L298.793 38.9L295.015 44.0476L297.009 44.2991L296.804 45.9213L294.483 45.6285L294.361 46.5958L296.682 46.8886L296.479 48.4959L294.158 48.2031L293.897 50.2717L291.724 49.9976L291.985 47.929L289.663 47.6362L289.866 46.0289L292.188 46.3217L292.31 45.3544L289.988 45.0616L290.193 43.4394L292.187 43.691L289.805 37.7663L292.29 38.0797L293.749 42.4517L293.809 42.4592L296.308 38.5865ZM305.698 51.7602L303.451 51.4767L304.621 42.2052L301.94 43.1976L302.235 40.8611L305.325 39.7389L307.185 39.9736L305.698 51.7602ZM312.399 52.817Q310.36 52.5598 309.458 50.8434Q308.555 49.127 308.927 46.1804Q309.299 43.2337 310.599 41.7951Q311.899 40.3565 313.938 40.6137Q315.977 40.8708 316.879 42.5872Q317.781 44.3036 317.41 47.2503Q317.038 50.1969 315.738 51.6355Q314.438 53.0741 312.399 52.817ZM312.663 50.7186Q313.586 50.835 314.224 49.8571Q314.861 48.8791 315.103 46.9593Q315.345 45.0396 314.971 43.934Q314.596 42.8284 313.673 42.712Q312.751 42.5957 312.114 43.5661Q311.478 44.5366 311.234 46.4713Q310.99 48.406 311.365 49.5041Q311.741 50.6022 312.663 50.7186Z">
</path>
</g>
<rect  x="288.8193359375" y="53.8090705871582" width="27" height="10" transform="rotate(7.188767978783774 288.8193359375 53.8090705871582)" rx="5"    fill="#333333" >
</rect>
<g >
<text transform="translate(293.655029296875, 55.42690372467041) rotate(7.188767978783774)">
<tspan x="0" y="6.36" font-size="6" line-height="0"  fill="#FFFFFF"  font-family="PingFang SC Medium; 10.11d9e1; 2015-05-20" letter-spacing="0" >
优惠券</tspan>
</text>
</g>
<path   fill-rule="evenodd"  fill="#FFFFFF"  d="M303.658 80.135L257.692 89.9382C256.068 90.2844 254.478 89.2534 254.132 87.6299L245.856 48.8216L245.858 48.8212C247.951 48.3748 249.289 46.3102 248.843 44.2173C248.397 42.1243 246.332 40.7855 244.239 41.2319L244.237 41.2323L241.626 28.9887C241.28 27.3652 242.311 25.7751 243.934 25.4289L289.9 15.6257C291.524 15.2795 293.114 16.3105 293.46 17.934L296.071 30.1777C293.979 30.6249 292.642 32.6889 293.088 34.7812C293.534 36.8735 295.598 38.2121 297.69 37.767L305.966 76.5752C306.313 78.1987 305.282 79.7888 303.658 80.135Z">
</path>
<path fill-rule="evenodd"  fill="rgba(51, 51, 51, 1)"  d="M257.692 89.9382L303.658 80.135C305.282 79.7888 306.313 78.1987 305.966 76.5752L297.69 37.767C295.598 38.2121 293.534 36.8735 293.088 34.7812C292.642 32.6889 293.979 30.6249 296.071 30.1777L293.46 17.934C293.114 16.3105 291.524 15.2795 289.9 15.6257L243.934 25.4289C242.311 25.7751 241.28 27.3652 241.626 28.9887L244.237 41.2323L244.239 41.2319L244.242 41.2313C246.334 40.7867 248.397 42.1252 248.843 44.2173C249.289 46.3102 247.951 48.3748 245.858 48.8212L245.856 48.8216L254.132 87.6299C254.478 89.2534 256.068 90.2844 257.692 89.9382ZM246.443 49.179L254.621 87.5256C254.909 88.8759 256.237 89.7371 257.588 89.4492L303.554 79.646C304.904 79.358 305.765 78.0299 305.477 76.6795L297.3 38.3352Q295.808 38.4938 294.499 37.6451Q292.977 36.6572 292.599 34.8855Q292.221 33.1138 293.208 31.5906Q294.056 30.282 295.483 29.8181L292.971 18.0383C292.683 16.688 291.355 15.8268 290.005 16.1147L244.038 25.9179C242.688 26.2059 241.827 27.534 242.115 28.8844L244.628 40.6664C246.816 40.4525 248.863 41.9118 249.332 44.113C249.801 46.3141 248.528 48.4816 246.443 49.179Z">
</path>
<g >
<path     fill="#333333"  d="M259.005 33.0948L261.945 32.4678L259.698 39.7937L262.057 39.2906L262.466 41.2095L259.72 41.7952L259.964 42.9394L262.71 42.3537L263.116 44.255L260.369 44.8407L260.891 47.2876L258.321 47.8358L257.799 45.3888L255.053 45.9745L254.647 44.0732L257.394 43.4876L257.15 42.3433L254.403 42.929L253.994 41.0101L256.353 40.507L251.312 34.7355L254.252 34.1085L257.634 38.4855L257.704 38.4705L259.005 33.0948ZM272.579 42.1999L277.896 41.0661L278.425 43.5482L269.165 45.5231L268.775 43.6922L272.026 38.1399Q272.918 36.6247 273.18 35.7405Q273.442 34.8563 273.285 34.1169Q273.127 33.3776 272.533 33.0074Q271.938 32.6372 271.129 32.8099Q270.354 32.9751 269.842 33.6365Q269.329 34.2979 269.212 35.2985L266.642 34.8158Q266.811 33.1049 267.884 31.9192Q268.956 30.7334 270.699 30.3618Q271.984 30.0877 273.096 30.3842Q274.208 30.6807 274.969 31.4848Q275.729 32.2889 275.984 33.486Q276.232 34.6478 275.873 35.9392Q275.513 37.2306 274.459 39.0198L272.579 42.1999ZM285.167 42.368Q282.755 42.8824 281.055 41.2942Q279.354 39.706 278.611 36.2204Q277.867 32.7347 278.772 30.5909Q279.677 28.447 282.088 27.9327Q284.5 27.4183 286.201 29.0065Q287.902 30.5947 288.645 34.0803Q289.388 37.566 288.484 39.7098Q287.579 41.8537 285.167 42.368ZM284.638 39.8858Q285.729 39.6531 286.065 38.2931Q286.401 36.9332 285.916 34.6623Q285.432 32.3913 284.571 31.2867Q283.709 30.1821 282.618 30.4148Q281.526 30.6476 281.189 31.9988Q280.851 33.3499 281.339 35.6384Q281.827 37.927 282.687 39.0228Q283.546 40.1186 284.638 39.8858Z">
</path>
</g>
<rect  x="259" y="54.712700843811035" width="31.80000000000016" height="11.777777777777837" transform="rotate(-12.039025668289373 259 54.712700843811035)" rx="5.888888888888919"    fill="#333333" >
</rect>
<g >
<text transform="translate(265.005126953125, 54.6362829208374) rotate(-12.039025668289373)">
<tspan x="0" y="7.42" font-size="7" line-height="0"  fill="#FFFFFF"  font-family="PingFang SC Medium; 10.11d9e1; 2015-05-20" letter-spacing="0" >
优惠券</tspan>
</text>
</g>
<rect x="244" y="69" width="85" height="21"   fill="#EBE5B7" >
</rect>
</g>
<g mask="url(#mask-0_852)">
<path d="M326.42 19.0207L323.308 17.6485L323.795 14.2823L322.423 17.3944L319.057 16.9073L322.169 18.2796L321.682 21.6457L323.054 18.5336L326.42 19.0207Z" stroke="rgba(51, 51, 51, 1)" stroke-width="0.3"      fill="#FFFFFF" >
</path>
</g>
<g mask="url(#mask-0_852)">
<path d="M208.127 69.5132L202.145 70.5788L199.513 65.1011L200.579 71.0839L195.101 73.7153L201.084 72.6498L203.715 78.1274L202.65 72.1446L208.127 69.5132Z" stroke="rgba(51, 51, 51, 1)" stroke-width="0.3"      fill="#FFFFFF" >
</path>
</g>
<g mask="url(#mask-0_852)">
<path d="M234.272 21.1638L232.378 20.2247L232.775 18.1482L231.836 20.0422L229.759 19.6457L231.653 20.5847L231.256 22.6613L232.196 20.7672L234.272 21.1638Z" stroke="rgba(51, 51, 51, 1)" stroke-width="0.3"      fill="#FFFFFF" >
</path>
</g>
<defs>
<mask id="mask-0_852" style="mask-type:alpha" maskUnits="userSpaceOnUse">
<rect  x="0" y="0" width="343" height="90" rx="10"    fill="#BFE3CE" >
</rect>
</mask>
</defs>
</svg>
