<?xml version="1.0" encoding="UTF-8"?>
<svg width="38px" height="38px" viewBox="0 0 38 38" version="1.1" xmlns="http://www.w3.org/2000/svg" xmlns:xlink="http://www.w3.org/1999/xlink">
    <title>icon_anl</title>
    <defs>
        <linearGradient x1="50%" y1="0%" x2="50%" y2="100%" id="linearGradient-1">
            <stop stop-color="#1AD4FF" offset="0%"></stop>
            <stop stop-color="#3878F2" offset="100%"></stop>
        </linearGradient>
        <path d="M13.9912664,5.04166667 L15.2838428,2.23333332 C15.5196507,1.74166666 15.4672489,1.17499999 15.1615721,0.724999988 C14.8531771,0.27450638 14.3281179,0.00209091509 13.7641921,0 L10.9082969,0 C10.2532751,0 9.65938864,0.366666658 9.38864629,0.94166666 L8.37554585,3.07500001 C10.4995633,3.15666668 12.4925764,3.89750001 13.9912664,5.04166667 Z M1.99999999,5.04166667 C3.49170304,3.90333333 5.47248907,3.14833333 7.61572053,3.07500001 L6.6026201,0.94166666 C6.33187774,0.374999985 5.73799127,0 5.08296942,0 L2.23580785,0 C1.67214188,0.000274755639 1.14666127,0.27186133 0.838480128,0.722187359 C0.530298983,1.17251339 0.481013714,1.74079661 0.707423582,2.23333332 L1.99999999,5.04166667 L1.99999999,5.04166667 Z M7.99126638,20 C12.4017467,20 16,16.5833333 16,12.3666667 C16,8.34583333 12.6620087,4.93166668 8.40174673,4.75000001 C8.13151178,4.72973419 7.86014883,4.72695004 7.58951965,4.74166666 C3.2279476,4.95083331 0,8.435 0,12.3666667 C0,16.5833333 3.58951967,20 7.99126638,20 Z M5.24017467,11.0666667 L6.26200872,10.9333333 C6.51398475,10.8936857 6.73120269,10.742106 6.84716158,10.525 L7.30131004,9.63333334 C7.58951965,9.08333334 8.41048035,9.08333334 8.68995632,9.63333334 L9.15283842,10.525 C9.26637553,10.7416667 9.48471616,10.8916667 9.73799128,10.9333333 L10.7598253,11.0666667 C11.052863,11.1076512 11.2960265,11.3039696 11.386897,11.5729339 C11.4777675,11.8418982 11.4005519,12.1367631 11.1877729,12.3333333 L10.4454149,13.0166667 C10.2707424,13.1916667 10.1834061,13.4333333 10.2270742,13.675 L10.4017467,14.6416667 C10.4803493,15.1 10.1310044,15.4666667 9.72052402,15.5 C9.57205241,15.525 9.42358078,15.5 9.27510918,15.425 L8.36681223,14.9666667 C8.13851771,14.8583392 7.87021591,14.8583392 7.64192139,14.9666667 L6.72489082,15.425 C6.15720523,15.7166667 5.48471615,15.25 5.59825328,14.6416667 L5.66812227,14.25 L5.77292576,13.675 C5.81770991,13.4346683 5.73611994,13.188661 5.55458514,13.0166667 L4.81222706,12.3333333 C4.59944808,12.1367631 4.5222325,11.8418982 4.61310301,11.5729339 C4.70397352,11.3039696 4.947137,11.1076512 5.24017467,11.0666667 Z" id="path-2"></path>
        <filter x="-71.9%" y="-47.5%" width="243.8%" height="215.0%" filterUnits="objectBoundingBox" id="filter-3">
            <feOffset dx="0" dy="2" in="SourceAlpha" result="shadowOffsetOuter1"></feOffset>
            <feGaussianBlur stdDeviation="3.5" in="shadowOffsetOuter1" result="shadowBlurOuter1"></feGaussianBlur>
            <feColorMatrix values="0 0 0 0 0.215686275   0 0 0 0 0.48627451   0 0 0 0 0.949019608  0 0 0 1 0" type="matrix" in="shadowBlurOuter1"></feColorMatrix>
        </filter>
    </defs>
    <g id="页面-1" stroke="none" stroke-width="1" fill="none" fill-rule="evenodd">
        <g id="A1_首页" transform="translate(-1338, -431)">
            <g id="编组-10" transform="translate(360, 248)">
                <g id="编组-28备份" transform="translate(962, 127)">
                    <g id="编组-3备份-3" transform="translate(16, 15)">
                        <g id="icon_anl" transform="translate(0, 41)">
                            <rect id="矩形" fill="url(#linearGradient-1)" x="0" y="0" width="38" height="38" rx="10"></rect>
                            <g id="编组" transform="translate(11, 9)" fill-rule="nonzero">
                                <g id="形状">
                                    <use fill="black" fill-opacity="1" filter="url(#filter-3)" xlink:href="#path-2"></use>
                                    <use fill="#FBFDFF" xlink:href="#path-2"></use>
                                </g>
                            </g>
                        </g>
                    </g>
                </g>
            </g>
        </g>
    </g>
</svg>