<svg xmlns="http://www.w3.org/2000/svg" xmlns:xlink="http://www.w3.org/1999/xlink" width="93.08001708984375" height="93.09111022949219" viewBox="0 0 93.08001708984375 93.09111022949219" fill="none">
<path d="M93.08 6.55354L93.08 86.5458C93.08 90.1577 90.148 93.09 86.5365 93.09L6.54353 93.09C2.93202 93.0807 0.009308 90.1577 0 86.5458L0 6.55354C0 4.81275 0.688792 3.14644 1.90814 1.91765C3.1368 0.688866 4.80293 0 6.54353 0L86.5365 0C88.2771 0 89.9432 0.688866 91.1719 1.91765C92.3912 3.14644 93.08 4.81275 93.08 6.55354Z"   fill="#E8E1EF" >
</path>
<path d="M84.66 93.09L6.50026 93.09C5.13119 93.0943 3.78672 92.6568 2.67999 91.8505C6.98394 69.158 15.9608 55.3306 24.9622 52.1397C34.2915 48.8415 49.6463 50.3383 59.8774 52.3112C67.354 53.7223 73.7403 58.5258 77.1834 65.3109C80.3069 71.5083 83.4877 80.6008 84.66 93.09Z"   fill="#B75542" >
</path>
<path d="M57.751 22.0689C57.751 22.0689 64.239 11.0687 58.8508 8.7595C53.4595 6.45033 47.019 12.4194 47.019 12.4194C47.019 12.4194 34.9685 13.4988 30.3886 19.9515C25.8086 26.4012 37.0794 37.72 37.0794 37.72L57.751 22.0689Z"   fill="#000000" >
</path>
<path d="M39.2206 40.21L38.54 51.3104C38.54 51.3104 40.35 54.6295 46.8096 55.5494C51.6302 56.2494 53.4 55.2594 53.4 55.2594L53.0701 49.5907L52.7402 44.0593L41.1598 40.7603L39.2206 40.21Z"   fill="#F98575" >
</path>
<path d="M41.16 40.72C41.1922 41.0944 41.2791 41.4617 41.4196 41.8096C43.5706 47.5103 50.2902 49.1297 53.07 49.55L52.7401 44.0198L41.16 40.72Z"   fill="#000000" >
</path>
<path d="M56.771 18.8596C56.771 18.8596 61.7713 33.141 58.9706 40.7394C56.1698 48.341 49.2199 46.5711 45.0989 44.7403C42.7644 43.7769 40.7306 42.1957 39.2192 40.1697C36.6882 40.7042 34.1009 39.5552 32.8003 37.3211C30.4406 33.4387 32.3901 29.3194 34.7302 28.5513C37.0702 27.7799 39.621 29.5499 39.621 29.5499L37.8203 25.3698C37.8203 25.3698 48.2395 5.68884 56.771 18.8596Z"   fill="#F98575" >
</path>
<path d="M38.86 35.63C38.7455 35.629 38.6351 35.5863 38.55 35.5102L33.7702 31.6099C33.5545 31.4347 33.5186 31.1191 33.6898 30.9002C33.8709 30.6926 34.182 30.6616 34.4001 30.83L39.1799 34.7401C39.284 34.8226 39.3499 34.9433 39.3632 35.0753C39.3765 35.2069 39.3355 35.3389 39.2499 35.44C39.155 35.5583 39.0116 35.628 38.86 35.63Z"   fill="#000000" >
</path>
<path d="M37.9359 33.7227C38.0464 33.7959 38.1233 33.91 38.1499 34.0399C38.199 34.3127 38.0216 34.5746 37.7498 34.6301L34.3999 35.2701L34.3099 35.2801C34.0708 35.284 33.8638 35.1151 33.8199 34.88C33.7934 34.75 33.8194 34.6148 33.8929 34.5043C33.966 34.3935 34.0799 34.3165 34.2099 34.2901L37.5598 33.65C37.6898 33.6235 37.8251 33.6496 37.9359 33.7227Z"   fill="#000000" >
</path>
<path d="M46.7702 23.97C47.8433 22.5927 49.7675 22.2173 51.28 23.0899C51.5106 23.2394 51.5812 23.5444 51.4401 23.78C51.37 23.8928 51.2576 23.9732 51.1281 24.0033C50.9987 24.0334 50.8629 24.0105 50.75 23.9401C49.6521 23.3294 48.2725 23.6242 47.5202 24.6299C47.4262 24.7367 47.2919 24.7984 47.1498 24.8001C47.0272 24.8025 46.908 24.7557 46.8199 24.67C46.7191 24.5848 46.6569 24.4624 46.6476 24.3306C46.6379 24.1987 46.6822 24.0687 46.7702 23.97Z"   fill="#000000" >
</path>
<path d="M58.4271 23.8299C58.4271 23.9617 58.3741 24.0879 58.2799 24.1799C58.1947 24.2793 58.0711 24.3376 57.9399 24.34C57.8139 24.343 57.6919 24.2963 57.6 24.21C56.9645 23.607 56.0256 23.4527 55.2299 23.82C55.1106 23.8785 54.9728 23.8873 54.8472 23.844C54.7216 23.8009 54.6183 23.7096 54.5598 23.59C54.4974 23.4752 54.4849 23.3398 54.5245 23.2152C54.5642 23.0907 54.6529 22.9876 54.7698 22.9299C55.9412 22.3701 57.3362 22.5887 58.2799 23.48C58.3741 23.5722 58.4271 23.6982 58.4271 23.8299Z"   fill="#000000" >
</path>
<path d="M54.8401 35.3601C54.7839 35.3701 54.7263 35.3701 54.67 35.3601C54.4105 35.2662 54.2763 34.9793 54.37 34.72C55.7901 30.8398 53.94 28.5896 53.8601 28.4996C53.6805 28.2904 53.7051 27.9742 53.9151 27.795C54.1248 27.6157 54.4406 27.6404 54.62 27.8504C54.71 27.9604 56.94 30.6098 55.31 35.06C55.2247 35.2424 55.0416 35.3593 54.8401 35.3601Z"   fill="#000000" >
</path>
<path d="M56.5301 26.6901C56.5034 26.5601 56.5296 26.425 56.6029 26.3143C56.676 26.2036 56.7901 26.1266 56.9201 26.1001C57.0489 26.0703 57.1841 26.094 57.2951 26.1656C57.4062 26.2373 57.4837 26.3505 57.51 26.4802L58.05 29.0699C58.0795 29.2003 58.0545 29.3368 57.9808 29.4483C57.9072 29.5597 57.7914 29.636 57.66 29.66L57.5601 29.67C57.3254 29.6711 57.1217 29.5088 57.07 29.2799L56.5301 26.6901Z"   fill="#000000" >
</path>
<path d="M49.45 29.8601C49.2141 29.8648 49.0082 29.7012 48.9601 29.4699L48.4201 26.88C48.362 26.6038 48.5389 26.333 48.815 26.2751C49.0912 26.2169 49.3621 26.3938 49.42 26.67L49.96 29.2599C49.9865 29.3901 49.9604 29.5253 49.8872 29.6357C49.814 29.7465 49.7001 29.8234 49.57 29.85L49.45 29.8601Z"   fill="#000000" >
</path>
<path d="M46.4005 28.23C42.4704 30.4902 39.6096 29.6094 39.6096 29.6094L36.9305 28.4702L35.17 24.35L43.5994 16.3499L54.1697 11.58L59.09 16.6392L57.7505 22.0697C56.9898 20.6266 55.5379 19.6802 53.9089 19.5692C52.2417 19.4709 50.6056 20.0733 49.4 21.2308C49.4 21.2308 50.3305 25.9697 46.4005 28.23Z"   fill="#000000" >
</path>
<path d="M52.6861 38.2126C52.7818 38.303 52.8373 38.4282 52.84 38.5599C52.8454 38.6926 52.798 38.8221 52.7078 38.9197C52.618 39.0169 52.4926 39.0747 52.3599 39.08L52.35 39.0501C50.6069 39.0853 49.02 38.0497 48.35 36.4401C48.2737 36.1894 48.4037 35.9229 48.6478 35.8283C48.8919 35.7337 49.1676 35.8434 49.2799 36.08C49.8024 37.2989 51.004 38.0868 52.3301 38.0799C52.4619 38.0746 52.59 38.1226 52.6861 38.2126Z"   fill="#000000" >
</path>
<path d="M38.5053 50.7821C38.6378 50.7821 38.7654 50.8352 38.8603 50.9302C38.9193 50.99 45.3106 57.0098 53.7506 54.93C54.0173 54.8674 54.2856 55.0328 54.3495 55.2999C54.3838 55.4273 54.3642 55.5626 54.2955 55.6754C54.2284 55.7883 54.1187 55.8693 53.9895 55.9001C52.7328 56.2091 51.4434 56.3672 50.1507 56.37C45.7115 56.2778 41.4539 54.5958 38.1502 51.6298C38.0553 51.5376 38.0029 51.4119 38.0029 51.28C38.0029 51.1481 38.0553 51.0224 38.1502 50.9302C38.2435 50.8352 38.3711 50.7821 38.5053 50.7821Z"   fill="#FFFFFF" >
</path>
<path d="M72.46 92.26C72.1861 92.2547 71.9653 92.0339 71.96 91.7603L71.96 79.5397C71.9653 79.2661 72.1861 79.0453 72.46 79.04C72.7361 79.04 72.96 79.2634 72.96 79.5397L72.96 91.7603C72.96 92.0366 72.7361 92.26 72.46 92.26Z"   fill="#FFFFFF" >
</path>
</svg>
