<svg xmlns="http://www.w3.org/2000/svg" xmlns:xlink="http://www.w3.org/1999/xlink" width="30" height="30" viewBox="0 0 30 30" fill="none">
<path d="M17.9761 19.9824L15.7249 17.768C15.4135 17.4608 14.9131 17.4608 14.6017 17.768L12.3505 19.9824C11.8433 20.48 10.9873 20.1216 10.9873 19.4112L10.9873 9.17439L12.8849 2.65919L17.4945 2.65919L19.3393 9.17279L19.3393 19.4096C19.3393 20.1216 18.4833 20.4816 17.9761 19.9824Z"   fill="#AFF0CB" >
</path>
<path d="M1.29443 9.8876C1.29443 9.0576 1.54443 8.2476 2.00443 7.5576L4.72443 3.4676C5.45443 2.3676 6.67443 1.7076 7.99443 1.7076L12.7344 1.7076C12.7844 1.6976 12.8344 1.6976 12.8844 1.6976L17.4944 1.6976C17.5444 1.6976 17.5944 1.6976 17.6444 1.7076L22.2444 1.7076C23.6044 1.7076 24.8944 2.4276 25.6044 3.5876L28.0844 7.6176C28.4944 8.2776 28.7044 9.0476 28.7044 9.8176L28.7044 24.5076C28.7044 26.5976 27.0044 28.2976 24.9144 28.2976L5.08443 28.2976C2.99443 28.2976 1.29443 26.5976 1.29443 24.5076L1.29443 9.8876ZM3.86573 8.212L10.2657 8.212L11.6057 3.632L7.99573 3.632C7.32573 3.632 6.69573 3.972 6.31573 4.532L3.86573 8.212ZM12.2673 8.212L13.6073 3.632L16.7773 3.632L18.0673 8.212L12.2673 8.212ZM18.768 3.632L22.248 3.632C22.948 3.632 23.608 4.002 23.968 4.592L26.198 8.212L20.068 8.212L18.768 3.632ZM15.1643 18.5644L13.0243 20.6644C12.6843 20.9944 12.2443 21.1744 11.7843 21.1744C11.5643 21.1744 11.3243 21.1244 11.1043 21.0344C10.4543 20.7644 10.0243 20.1244 10.0243 19.4144L10.0243 10.1344L3.21433 10.1344L3.21433 24.5144C3.21433 25.5444 4.05433 26.3844 5.08433 26.3844L24.9143 26.3844C25.9443 26.3844 26.7843 25.5444 26.7843 24.5144L26.7843 10.1344L20.2943 10.1344L20.2943 19.4144C20.2943 20.1244 19.8743 20.7644 19.2143 21.0344C18.5643 21.3144 17.8043 21.1644 17.3043 20.6644L15.1643 18.5644ZM13.9272 17.0844L11.9472 19.0344L11.9472 10.1344L18.3772 10.1344L18.3772 19.0344L16.3972 17.0844C15.7172 16.4144 14.6072 16.4144 13.9272 17.0844Z" fill-rule="evenodd"  fill="#09AB4F" >
</path>
</svg>
