<svg xmlns="http://www.w3.org/2000/svg" xmlns:xlink="http://www.w3.org/1999/xlink" width="30" height="30" viewBox="0 0 30 30" fill="none">
<path d="M8.30468 3.00638L21.7334 3.00638C22.8844 3.00638 23.9343 3.66048 24.4433 4.69224L26.8934 9.66522C26.9282 9.73471 26.8768 9.81629 26.7998 9.81629L3.20206 9.81629C3.12352 9.81629 3.07367 9.73471 3.10841 9.66371L5.60232 4.67562C6.11448 3.65246 7.16054 3.00631 8.30468 3.00638Z"   fill="#AFF0CB" >
</path>
<path d="M2.12646 9.92001L2.12646 23.97C2.12646 26.14 3.88646 27.9 6.05647 27.9L23.9465 27.9C26.1165 27.9 27.8765 26.14 27.8765 23.97L27.8765 9.92001C27.8765 9.78001 27.8465 9.65001 27.7965 9.52001C27.7765 9.44001 27.7465 9.35001 27.7065 9.26001L25.2565 4.29001C24.5865 2.94001 23.2365 2.10001 21.7365 2.10001L8.30647 2.10001C6.80646 2.10001 5.46646 2.93001 4.79646 4.27001L2.29646 9.26001C2.25646 9.34001 2.22646 9.43001 2.20646 9.52001C2.15646 9.64001 2.12646 9.78001 2.12646 9.92001ZM4.49806 8.91281L25.5081 8.91281L23.6281 5.09281C23.2681 4.36281 22.5381 3.91281 21.7281 3.91281L8.30806 3.91281C7.49806 3.91281 6.76806 4.36281 6.40806 5.08281L4.49806 8.91281ZM26.0575 10.7227L26.0575 23.9727C26.0575 25.1327 25.1075 26.0827 23.9475 26.0827L6.04746 26.0827C4.88746 26.0827 3.93746 25.1327 3.93746 23.9727L3.93746 10.7227L26.0575 10.7227Z" fill-rule="evenodd"  fill="#09AB4F" >
</path>
<path d="M13.013 20.1278L19.6971 14.0793C20.0687 13.7439 20.6412 13.7711 20.9765 14.1427C21.3118 14.5138 21.2834 15.0862 20.9131 15.4222L14.1126 21.575C13.8106 21.8523 13.4154 22.006 13.0054 22.0055C12.5779 22.0055 12.1504 21.8394 11.8272 21.5085L9.04627 18.6671C8.69583 18.309 8.70187 17.735 9.05987 17.386C9.41787 17.0356 9.99187 17.0416 10.3408 17.3996L13.013 20.1278Z"   fill="#09AB4F" >
</path>
</svg>
