<svg xmlns="http://www.w3.org/2000/svg" xmlns:xlink="http://www.w3.org/1999/xlink" width="30" height="30" viewBox="0 0 30 30" fill="none">
<path d="M7.96666 2.40259L22.0731 2.40259C23.2822 2.40259 24.385 3.08966 24.9198 4.17343L27.4935 9.3971C27.53 9.47009 27.4761 9.55578 27.3952 9.55578L2.60653 9.55578C2.52402 9.55578 2.47165 9.47009 2.50815 9.39551L5.12792 4.15598C5.66593 3.08124 6.76478 2.40251 7.96666 2.40259Z"   fill="#AFF0CB" >
</path>
<path d="M28.5268 24.4205L28.5268 9.67052C28.5268 9.52052 28.4868 9.38052 28.4368 9.25052C28.4168 9.15052 28.3868 9.06052 28.3468 8.98052L25.7768 3.75052C25.0768 2.33052 23.6568 1.45052 22.0668 1.45052L7.96681 1.45052C6.39681 1.45052 4.97681 2.32052 4.27681 3.73052L1.65681 8.97052C1.60681 9.06052 1.57681 9.15052 1.56681 9.25052C1.50681 9.38052 1.47681 9.52052 1.47681 9.66052L1.47681 24.4205C1.47681 26.7005 3.32681 28.5505 5.60681 28.5505L24.3968 28.5505C26.6768 28.5505 28.5268 26.7005 28.5268 24.4205ZM3.96801 8.60462L26.038 8.60462L24.068 4.59462C23.688 3.82462 22.928 3.35462 22.068 3.35462L7.96801 3.35462C7.11801 3.35462 6.35801 3.82462 5.97801 4.58462L3.96801 8.60462ZM3.38091 10.5078L26.6209 10.5078L26.6209 24.4278C26.6209 25.6478 25.6209 26.6478 24.4009 26.6478L5.60091 26.6478C4.38091 26.6478 3.38091 25.6478 3.38091 24.4278L3.38091 10.5078Z" fill-rule="evenodd"  fill="#09AB4F" >
</path>
<path d="M10.3121 23.7416L16.9575 23.7416C19.0377 23.7416 20.7292 22.05 20.7292 19.9698C20.7292 17.8895 19.0377 16.198 16.9575 16.198L12.4447 16.198L13.5649 15.0206C13.9283 14.6398 13.9125 14.0368 13.5316 13.675C13.1508 13.3133 12.5478 13.3275 12.186 13.7084L9.53454 16.4947C9.27272 16.7708 9.19973 17.1755 9.34888 17.5261C9.49804 17.8768 9.84237 18.1021 10.2232 18.1021L16.9575 18.1021C17.9873 18.1021 18.8251 18.94 18.8251 19.9698C18.8251 20.9996 17.9873 21.8374 16.9575 21.8374L10.3121 21.8374C9.78683 21.8374 9.35999 22.2643 9.35999 22.7895C9.35999 23.3147 9.78683 23.7416 10.3121 23.7416Z"   fill="#09AB4F" >
</path>
</svg>
