<svg xmlns="http://www.w3.org/2000/svg" xmlns:xlink="http://www.w3.org/1999/xlink" width="30" height="30" viewBox="0 0 30 30" fill="none">
<path d="M27.1763 17.5218C25.6699 19.473 22.3404 21.3742 15.0772 21.3742C8.02312 21.3742 4.46565 19.7149 2.67365 17.962C2.25155 19.2584 2.03713 20.6134 2.03834 21.9768C2.03834 22.7557 2.10702 23.5206 2.2397 24.2621C2.60497 26.3179 4.38292 27.8226 6.47151 27.8226L23.533 27.8226C25.5794 27.8226 27.3667 26.3834 27.7429 24.3729C27.8881 23.5971 27.9646 22.7963 27.9646 21.9783C27.9646 20.4127 27.6852 18.911 27.1763 17.5218Z"   fill="#AFF0CB" >
</path>
<path d="M22.1818 10.0723C26.3518 12.5823 28.9018 17.0423 28.9018 21.9723C28.9018 22.8323 28.8218 23.6923 28.6618 24.5423C28.2018 26.9823 26.0518 28.7623 23.5318 28.7623L6.47181 28.7623C3.93181 28.7623 1.76181 26.9323 1.32181 24.4223C1.17181 23.6123 1.10181 22.7923 1.10181 21.9723C1.10181 17.0223 3.78181 12.4223 8.03181 9.95234C6.52181 7.79234 6.27181 5.76234 7.30181 4.01234C7.31181 4.00234 7.32181 3.99234 7.32181 3.97234C7.92181 3.06234 9.56181 2.05234 11.8118 2.68234C13.1618 1.24234 14.8818 1.24234 15.5018 1.24234C16.5818 1.24234 17.9418 1.85234 18.7118 2.81234C19.7718 2.56234 21.2118 2.58234 22.2518 3.28234C23.2418 3.93234 23.7018 5.05234 23.5718 6.43234C23.4318 7.72234 22.9718 8.94234 22.1818 10.0723ZM20.345 11.197C24.465 13.247 27.025 17.377 27.025 21.977C27.025 22.727 26.955 23.467 26.825 24.197C26.535 25.757 25.145 26.887 23.535 26.887L6.47501 26.887C4.84501 26.887 3.44501 25.707 3.16501 24.097C3.03501 23.397 2.97501 22.687 2.97501 21.977C2.97501 17.357 5.67501 13.087 9.85501 11.107C10.115 10.977 10.305 10.737 10.365 10.457C10.425 10.167 10.355 9.87704 10.165 9.65704C9.08501 8.38704 8.00501 6.54704 8.90501 4.98704C9.12501 4.66704 10.085 3.95704 11.775 4.64704C12.175 4.80704 12.645 4.66704 12.895 4.30704C13.475 3.47704 14.255 3.11704 15.495 3.11704C16.235 3.11704 17.225 3.70704 17.425 4.26704C17.515 4.52704 17.715 4.73704 17.975 4.82704C18.225 4.92704 18.515 4.90704 18.755 4.77704C19.195 4.53704 20.505 4.36704 21.225 4.83704C21.475 5.00704 21.795 5.33704 21.705 6.23704C21.575 7.48704 21.025 8.66704 20.065 9.73704C19.865 9.95704 19.785 10.257 19.845 10.537C19.895 10.827 20.085 11.067 20.345 11.197Z" fill-rule="evenodd"  fill="#09AB4F" >
</path>
<path d="M11.8882 13.3774C11.5276 13.0074 10.9344 12.9996 10.5645 13.3602C10.1945 13.7211 10.1868 14.3135 10.5473 14.6839L12.97 17.169L11.217 17.169C10.7003 17.169 10.2804 17.5889 10.2804 18.1056C10.2804 18.6222 10.7003 19.0421 11.217 19.0421L14.1032 19.0421L14.1032 20.0583L11.217 20.0583C10.7003 20.0583 10.2804 20.4782 10.2804 20.9949C10.2804 21.5116 10.7003 21.9315 11.217 21.9315L14.1032 21.9315L14.1032 23.9873C14.1032 24.504 14.5231 24.9239 15.0398 24.9239C15.5565 24.9239 15.9764 24.504 15.9764 23.9873L15.9764 21.9315L18.8611 21.9315C19.3778 21.9315 19.7977 21.5116 19.7977 20.9949C19.7977 20.4782 19.3793 20.0599 18.8611 20.0599L15.9764 20.0599L15.9764 19.0437L18.8611 19.0437C19.3778 19.0437 19.7977 18.6238 19.7977 18.1071C19.7977 17.5904 19.3778 17.1705 18.8611 17.1705L17.1097 17.1705L19.5323 14.6855C19.8929 14.3155 19.8851 13.7223 19.5151 13.3602C19.1452 12.9996 18.552 13.0074 18.1899 13.3774L15.0382 16.6101L11.8882 13.3774Z"   fill="#09AB4F" >
</path>
</svg>
